<svg width="127" height="39" viewBox="0 0 127 39" fill="none" xmlns="http://www.w3.org/2000/svg">
<rect width="127" height="39" fill="white"/>
<path d="M51.8423 13.2046C52.0376 13.2941 52.2329 13.4447 52.4282 13.6562C52.5422 13.8678 52.6195 14.1283 52.6602 14.4375C52.652 14.7305 52.5747 15.0234 52.4282 15.3164C52.3062 15.5036 52.1353 15.6501 51.9155 15.7559C51.7121 15.6989 51.5208 15.5687 51.3418 15.3652C51.2197 15.1374 51.1424 14.8607 51.1099 14.5352C51.1261 14.234 51.2035 13.9411 51.3418 13.6562L51.8423 13.2046ZM50.4019 15.3164C50.6216 15.3652 50.8169 15.4954 50.9878 15.707C51.1424 15.8942 51.2441 16.1546 51.293 16.4883V17.0742L51.0977 17.3672C50.9674 17.5706 50.8006 17.7375 50.5972 17.8677C50.3774 17.827 50.1699 17.6927 49.9746 17.4648C49.8607 17.2614 49.7712 17.001 49.7061 16.6836C49.7305 16.4069 49.8078 16.1302 49.938 15.8535L50.4019 15.3164ZM51.6836 15.3652C51.9196 15.3896 52.1393 15.4873 52.3428 15.6582C52.4811 15.8698 52.5869 16.1302 52.6602 16.4395V17.0254L52.5015 17.3672C52.3713 17.5462 52.2044 17.7131 52.001 17.8677C51.8057 17.8351 51.6104 17.7334 51.415 17.5625C51.2686 17.359 51.1668 17.0986 51.1099 16.7812L51.0732 16.3906L51.1465 16C51.1709 15.9919 51.1953 15.9593 51.2197 15.9023L51.6836 15.3652ZM51.769 17.4648C51.9888 17.5055 52.2085 17.6235 52.4282 17.8188C52.5259 18.0304 52.6154 18.2909 52.6968 18.6001C52.6561 18.8768 52.591 19.186 52.5015 19.5278C52.355 19.6987 52.1759 19.8452 51.9644 19.9673C51.7609 19.9266 51.5656 19.8127 51.3784 19.6255C51.2401 19.4139 51.1506 19.1535 51.1099 18.8442L51.0732 18.5024L51.2686 17.9653C51.3988 17.8026 51.5656 17.6357 51.769 17.4648ZM51.6836 19.5767C51.9196 19.5929 52.1393 19.6906 52.3428 19.8696C52.4811 20.0568 52.5869 20.3009 52.6602 20.6021V21.188L52.5015 21.5298C52.3794 21.7251 52.2248 21.9041 52.0376 22.0669C51.826 22.0669 51.6185 21.9692 51.415 21.7739C51.293 21.5949 51.1912 21.367 51.1099 21.0903C51.1099 20.7729 51.1628 20.4474 51.2686 20.1138L51.6836 19.5767ZM51.769 21.6274C51.9888 21.6844 52.1922 21.8146 52.3794 22.0181C52.5096 22.2378 52.6032 22.5023 52.6602 22.8115C52.6439 23.0964 52.591 23.4056 52.5015 23.7393C52.3468 23.902 52.1678 24.0485 51.9644 24.1787C51.7528 24.138 51.5452 24.0078 51.3418 23.7881C51.2197 23.5602 51.1424 23.2835 51.1099 22.958C51.1261 22.6976 51.179 22.4209 51.2686 22.1279L51.769 21.6274ZM51.769 23.8003C51.9725 23.8573 52.1759 23.9875 52.3794 24.1909C52.5015 24.3944 52.6073 24.6385 52.6968 24.9233C52.6724 25.2163 52.6073 25.5256 52.5015 25.8511C52.3631 26.0057 52.1963 26.1685 52.001 26.3394C51.7812 26.2987 51.5615 26.1847 51.3418 25.9976C51.236 25.7697 51.1465 25.5093 51.0732 25.2163C51.0895 24.9233 51.1546 24.6141 51.2686 24.2886L51.769 23.8003ZM49.1567 25.8999C49.3521 25.9894 49.5474 26.1359 49.7427 26.3394C49.8566 26.5754 49.9339 26.8561 49.9746 27.1816C49.9665 27.4746 49.8892 27.7676 49.7427 28.0605C49.5962 28.2314 49.4131 28.3779 49.1934 28.5C49.0062 28.3942 48.8149 28.2477 48.6196 28.0605C48.5057 27.8408 48.4406 27.5804 48.4243 27.2793C48.4325 26.9863 48.4976 26.673 48.6196 26.3394C48.7661 26.1847 48.9451 26.0382 49.1567 25.8999ZM50.4019 25.8999C50.6134 25.9569 50.821 26.0871 51.0244 26.2905C51.1383 26.5021 51.2401 26.7503 51.3296 27.0352C51.3133 27.3363 51.2482 27.6455 51.1343 27.9629C51.0041 28.1419 50.8372 28.3047 50.6338 28.4512C50.4141 28.4349 50.2228 28.321 50.0601 28.1094C49.9136 27.9141 49.8078 27.6699 49.7427 27.377C49.7508 27.0514 49.8159 26.7422 49.938 26.4492C50.0519 26.262 50.2065 26.0789 50.4019 25.8999ZM51.8057 25.8999C52.0091 25.9894 52.2166 26.1196 52.4282 26.2905C52.5422 26.5347 52.6195 26.8154 52.6602 27.1328C52.6602 27.4095 52.5951 27.6862 52.4648 27.9629C52.3428 28.1582 52.1759 28.321 51.9644 28.4512C51.7446 28.4105 51.5371 28.2803 51.3418 28.0605C51.2279 27.8408 51.1383 27.5804 51.0732 27.2793C51.0895 26.9863 51.1668 26.6934 51.3052 26.4004C51.4354 26.2295 51.6022 26.0627 51.8057 25.8999ZM53.0996 25.8999C53.3031 25.9976 53.5106 26.1278 53.7222 26.2905C53.8524 26.5103 53.9419 26.7747 53.9907 27.084L54.0273 27.1816L53.9175 27.8652C53.8849 27.8734 53.8564 27.9059 53.832 27.9629C53.7018 28.1338 53.535 28.2965 53.3315 28.4512C53.12 28.4186 52.9124 28.321 52.709 28.1582C52.5869 27.9385 52.4974 27.6781 52.4404 27.377V26.7422L52.6357 26.4492C52.7497 26.262 52.9043 26.0789 53.0996 25.8999ZM54.418 25.8999C54.6296 25.9569 54.833 26.0871 55.0283 26.2905C55.1748 26.5265 55.2684 26.8073 55.3091 27.1328L55.3457 27.5234L55.3091 27.6699L55.1504 27.9629C55.0039 28.1501 54.8249 28.3128 54.6133 28.4512C54.4017 28.4186 54.2064 28.3047 54.0273 28.1094C53.889 27.8978 53.7873 27.6374 53.7222 27.3281C53.7303 27.027 53.8076 26.734 53.9541 26.4492L54.418 25.8999ZM61.3882 15.3164C61.6079 15.3652 61.8032 15.4954 61.9741 15.707C62.1287 15.8942 62.2305 16.1546 62.2793 16.4883V17.0742L62.084 17.3672C61.9538 17.5706 61.7869 17.7375 61.5835 17.8677C61.3638 17.827 61.1562 17.6927 60.9609 17.4648C60.847 17.2614 60.7575 17.001 60.6924 16.6836C60.7168 16.4069 60.7941 16.1302 60.9243 15.8535L61.3882 15.3164ZM62.6699 15.3652C62.9059 15.3896 63.1257 15.4873 63.3291 15.6582C63.4674 15.8698 63.5732 16.1302 63.6465 16.4395V17.0254L63.4878 17.3672C63.3576 17.5462 63.1908 17.7131 62.9873 17.8677C62.792 17.8351 62.5967 17.7334 62.4014 17.5625C62.2549 17.359 62.1532 17.0986 62.0962 16.7812L62.0596 16.3906L62.1328 16C62.1572 15.9919 62.1816 15.9593 62.2061 15.9023L62.6699 15.3652ZM61.4614 17.416C61.6649 17.5055 61.8602 17.6561 62.0474 17.8677C62.1694 18.0955 62.2467 18.3722 62.2793 18.6978C62.2712 18.9907 62.1938 19.2837 62.0474 19.5767C61.9009 19.7557 61.7218 19.9022 61.5103 20.0161C61.3231 19.9103 61.1278 19.7638 60.9243 19.5767L60.729 19.0884L60.7656 18.7466L60.729 18.4048L60.9243 17.8677L61.4614 17.416ZM62.7554 17.4648C62.9751 17.5055 63.1948 17.6235 63.4146 17.8188C63.5122 18.0304 63.6017 18.2909 63.6831 18.6001C63.6424 18.8768 63.5773 19.186 63.4878 19.5278C63.3413 19.6987 63.1623 19.8452 62.9507 19.9673C62.7472 19.9266 62.5519 19.8127 62.3647 19.6255C62.2264 19.4139 62.1369 19.1535 62.0962 18.8442L62.0596 18.5024L62.2549 17.9653C62.3851 17.8026 62.5519 17.6357 62.7554 17.4648ZM61.3882 23.8003C61.5998 23.8573 61.8073 23.9875 62.0107 24.1909C62.1328 24.4106 62.2223 24.6711 62.2793 24.9722L62.3159 25.314L62.1206 25.8511C61.9904 26.0301 61.8236 26.1929 61.6201 26.3394C61.4085 26.3068 61.201 26.2091 60.9976 26.0464C60.8755 25.8348 60.786 25.5744 60.729 25.2651C60.7371 24.9478 60.79 24.6222 60.8877 24.2886L61.3882 23.8003ZM62.7554 23.8003C62.9588 23.8573 63.1623 23.9875 63.3657 24.1909C63.4878 24.3944 63.5936 24.6385 63.6831 24.9233C63.6587 25.2163 63.5936 25.5256 63.4878 25.8511C63.3494 26.0057 63.1826 26.1685 62.9873 26.3394C62.7676 26.2987 62.5479 26.1847 62.3281 25.9976C62.2223 25.7697 62.1328 25.5093 62.0596 25.2163C62.0758 24.9233 62.141 24.6141 62.2549 24.2886L62.7554 23.8003ZM61.3882 25.8999C61.5998 25.9569 61.8073 26.0871 62.0107 26.2905C62.1247 26.5021 62.2264 26.7503 62.3159 27.0352C62.2996 27.3363 62.2345 27.6455 62.1206 27.9629C61.9904 28.1419 61.8236 28.3047 61.6201 28.4512C61.4004 28.4349 61.2091 28.321 61.0464 28.1094C60.8999 27.9141 60.7941 27.6699 60.729 27.377C60.7371 27.0514 60.8022 26.7422 60.9243 26.4492C61.0382 26.262 61.1929 26.0789 61.3882 25.8999ZM62.792 25.8999C62.9954 25.9894 63.203 26.1196 63.4146 26.2905C63.5285 26.5347 63.6058 26.8154 63.6465 27.1328C63.6465 27.4095 63.5814 27.6862 63.4512 27.9629C63.3291 28.1582 63.1623 28.321 62.9507 28.4512C62.731 28.4105 62.5234 28.2803 62.3281 28.0605C62.2142 27.8408 62.1247 27.5804 62.0596 27.2793C62.0758 26.9863 62.1532 26.6934 62.2915 26.4004C62.4217 26.2295 62.5885 26.0627 62.792 25.8999ZM73.8149 13.2046C74.0103 13.2941 74.2056 13.4447 74.4009 13.6562C74.5148 13.8678 74.5921 14.1283 74.6328 14.4375C74.6247 14.7305 74.5474 15.0234 74.4009 15.3164C74.2788 15.5036 74.1079 15.6501 73.8882 15.7559C73.6847 15.6989 73.4935 15.5687 73.3145 15.3652C73.1924 15.1374 73.1151 14.8607 73.0825 14.5352C73.0988 14.234 73.1761 13.9411 73.3145 13.6562L73.8149 13.2046ZM72.3745 15.3164C72.5942 15.3652 72.7896 15.4954 72.9604 15.707C73.1151 15.8942 73.2168 16.1546 73.2656 16.4883V17.0742L73.0703 17.3672C72.9401 17.5706 72.7733 17.7375 72.5698 17.8677C72.3501 17.827 72.1426 17.6927 71.9473 17.4648C71.8333 17.2614 71.7438 17.001 71.6787 16.6836C71.7031 16.4069 71.7804 16.1302 71.9106 15.8535L72.3745 15.3164ZM73.6562 15.3652C73.8923 15.3896 74.112 15.4873 74.3154 15.6582C74.4538 15.8698 74.5596 16.1302 74.6328 16.4395V17.0254L74.4741 17.3672C74.3439 17.5462 74.1771 17.7131 73.9736 17.8677C73.7783 17.8351 73.583 17.7334 73.3877 17.5625C73.2412 17.359 73.1395 17.0986 73.0825 16.7812L73.0459 16.3906L73.1191 16C73.1436 15.9919 73.168 15.9593 73.1924 15.9023L73.6562 15.3652ZM73.7417 17.4648C73.9614 17.5055 74.1812 17.6235 74.4009 17.8188C74.4985 18.0304 74.5881 18.2909 74.6694 18.6001C74.6287 18.8768 74.5636 19.186 74.4741 19.5278C74.3276 19.6987 74.1486 19.8452 73.937 19.9673C73.7336 19.9266 73.5382 19.8127 73.3511 19.6255C73.2127 19.4139 73.1232 19.1535 73.0825 18.8442L73.0459 18.5024L73.2412 17.9653C73.3714 17.8026 73.5382 17.6357 73.7417 17.4648ZM73.6562 19.5767C73.8923 19.5929 74.112 19.6906 74.3154 19.8696C74.4538 20.0568 74.5596 20.3009 74.6328 20.6021V21.188L74.4741 21.5298C74.3521 21.7251 74.1974 21.9041 74.0103 22.0669C73.7987 22.0669 73.5911 21.9692 73.3877 21.7739C73.2656 21.5949 73.1639 21.367 73.0825 21.0903C73.0825 20.7729 73.1354 20.4474 73.2412 20.1138L73.6562 19.5767ZM73.7417 21.6274C73.9614 21.6844 74.1649 21.8146 74.3521 22.0181C74.4823 22.2378 74.5758 22.5023 74.6328 22.8115C74.6165 23.0964 74.5636 23.4056 74.4741 23.7393C74.3195 23.902 74.1405 24.0485 73.937 24.1787C73.7254 24.138 73.5179 24.0078 73.3145 23.7881C73.1924 23.5602 73.1151 23.2835 73.0825 22.958C73.0988 22.6976 73.1517 22.4209 73.2412 22.1279L73.7417 21.6274ZM73.7417 23.8003C73.9451 23.8573 74.1486 23.9875 74.3521 24.1909C74.4741 24.3944 74.5799 24.6385 74.6694 24.9233C74.645 25.2163 74.5799 25.5256 74.4741 25.8511C74.3358 26.0057 74.1689 26.1685 73.9736 26.3394C73.7539 26.2987 73.5342 26.1847 73.3145 25.9976C73.2087 25.7697 73.1191 25.5093 73.0459 25.2163C73.0622 24.9233 73.1273 24.6141 73.2412 24.2886L73.7417 23.8003ZM71.1294 25.8999C71.3247 25.9894 71.52 26.1359 71.7153 26.3394C71.8293 26.5754 71.9066 26.8561 71.9473 27.1816C71.9391 27.4746 71.8618 27.7676 71.7153 28.0605C71.5688 28.2314 71.3857 28.3779 71.166 28.5C70.9788 28.3942 70.7876 28.2477 70.5923 28.0605C70.4784 27.8408 70.4132 27.5804 70.397 27.2793C70.4051 26.9863 70.4702 26.673 70.5923 26.3394C70.7388 26.1847 70.9178 26.0382 71.1294 25.8999ZM72.3745 25.8999C72.5861 25.9569 72.7936 26.0871 72.9971 26.2905C73.111 26.5021 73.2127 26.7503 73.3022 27.0352C73.286 27.3363 73.2209 27.6455 73.1069 27.9629C72.9767 28.1419 72.8099 28.3047 72.6064 28.4512C72.3867 28.4349 72.1955 28.321 72.0327 28.1094C71.8862 27.9141 71.7804 27.6699 71.7153 27.377C71.7235 27.0514 71.7886 26.7422 71.9106 26.4492C72.0246 26.262 72.1792 26.0789 72.3745 25.8999ZM73.7783 25.8999C73.9818 25.9894 74.1893 26.1196 74.4009 26.2905C74.5148 26.5347 74.5921 26.8154 74.6328 27.1328C74.6328 27.4095 74.5677 27.6862 74.4375 27.9629C74.3154 28.1582 74.1486 28.321 73.937 28.4512C73.7173 28.4105 73.5098 28.2803 73.3145 28.0605C73.2005 27.8408 73.111 27.5804 73.0459 27.2793C73.0622 26.9863 73.1395 26.6934 73.2778 26.4004C73.408 26.2295 73.5749 26.0627 73.7783 25.8999ZM75.0723 25.8999C75.2757 25.9976 75.4832 26.1278 75.6948 26.2905C75.825 26.5103 75.9146 26.7747 75.9634 27.084L76 27.1816L75.8901 27.8652C75.8576 27.8734 75.8291 27.9059 75.8047 27.9629C75.6745 28.1338 75.5076 28.2965 75.3042 28.4512C75.0926 28.4186 74.8851 28.321 74.6816 28.1582C74.5596 27.9385 74.4701 27.6781 74.4131 27.377V26.7422L74.6084 26.4492C74.7223 26.262 74.877 26.0789 75.0723 25.8999ZM76.3906 25.8999C76.6022 25.9569 76.8057 26.0871 77.001 26.2905C77.1475 26.5265 77.241 26.8073 77.2817 27.1328L77.3184 27.5234L77.2817 27.6699L77.123 27.9629C76.9766 28.1501 76.7975 28.3128 76.5859 28.4512C76.3743 28.4186 76.179 28.3047 76 28.1094C75.8617 27.8978 75.7599 27.6374 75.6948 27.3281C75.703 27.027 75.7803 26.734 75.9268 26.4492L76.3906 25.8999Z" fill="black"/>
</svg>
