<svg width="39" height="39" viewBox="0 0 39 39" fill="none" xmlns="http://www.w3.org/2000/svg">
<mask id="mask0_62_1468" style="mask-type:luminance" maskUnits="userSpaceOnUse" x="8" y="8" width="23" height="23">
<path d="M8 8H31V31H8V8Z" fill="white"/>
</mask>
<g mask="url(#mask0_62_1468)">
<path fill-rule="evenodd" clip-rule="evenodd" d="M21.0522 8L21.7685 10.9446C22.5644 11.1833 23.201 11.4221 23.9173 11.82L26.464 10.2282C27.3395 10.8649 28.0558 11.6608 28.6924 12.4566L27.1804 15.0828C27.4987 15.7195 27.817 16.4358 28.0558 17.152L31.0003 17.9479V21.0517L28.0558 21.768C27.817 22.5639 27.4987 23.2005 27.1804 23.9168L28.6924 26.4635C28.0558 27.339 27.3394 28.0553 26.464 28.6919L23.9173 27.1799C23.201 27.4982 22.5643 27.8165 21.7685 28.0553L21.0522 30.9999H17.9484L17.1525 28.0553C16.4361 27.8165 15.7199 27.4982 15.0833 27.1799L12.4571 28.6919C11.6612 28.0553 10.8653 27.3389 10.2287 26.4635L11.8205 23.9168C11.4226 23.2005 11.1839 22.5639 10.9451 21.768L8.00049 21.0517V17.9479L10.9451 17.152C11.1838 16.4356 11.4226 15.7195 11.8205 15.0828L10.2287 12.4566C10.8653 11.6607 11.6612 10.8649 12.4571 10.2282L15.0833 11.82C15.7199 11.4221 16.4363 11.1834 17.1525 10.9446L17.9484 8H21.0522ZM19.4604 13.7303C24.6332 13.7303 27.1007 19.938 23.5989 23.5194C21.2909 25.8274 17.471 25.8274 15.2422 23.3602C11.8996 19.7788 14.4463 13.7303 19.4603 13.7303L19.4604 13.7303Z" fill="white"/>
</g>
<rect x="0.5" y="0.5" width="38" height="38" stroke="white"/>
</svg>
